<svg xmlns="http://www.w3.org/2000/svg" width="35.063" height="35.063" viewBox="0 0 35.063 35.063">
  <path id="Icon_awesome-arrow-alt-circle-left" data-name="Icon awesome-arrow-alt-circle-left" d="M18.094,35.625A17.531,17.531,0,1,1,35.625,18.094,17.528,17.528,0,0,1,18.094,35.625Zm8.2-20.642h-8.2V9.971a.849.849,0,0,0-1.449-.6l-8.08,8.122a.841.841,0,0,0,0,1.195l8.08,8.122a.848.848,0,0,0,1.449-.6v-5h8.2a.851.851,0,0,0,.848-.848V15.832A.851.851,0,0,0,26.294,14.983Z" transform="translate(-0.563 -0.563)" fill="#deb221"/>
</svg>
