<?xml version="1.0" encoding="utf-8"?>
<!-- Generator: Adobe Illustrator 25.4.1, SVG Export Plug-In . SVG Version: 6.00 Build 0)  -->
<svg version="1.1" id="Layer_1" xmlns="http://www.w3.org/2000/svg" xmlns:xlink="http://www.w3.org/1999/xlink" x="0px" y="0px"
	 viewBox="0 0 15 13.3" style="enable-background:new 0 0 15 13.3;" xml:space="preserve">
<style type="text/css">
	.st0{fill:#F8593D;}
</style>
<path id="heart" class="st0" d="M13.8,1.3C13,0.5,12,0,10.8,0C10,0,9.1,0.3,8.5,0.8c-0.4,0.3-0.7,0.6-1,1c-0.3-0.4-0.6-0.7-1-1
	C5.9,0.3,5,0,4.2,0C3.1,0,2,0.5,1.2,1.3C0.4,2.2,0,3.3,0,4.5c0,1.4,0.6,2.7,1.5,3.7c1.1,1.3,2.4,2.4,3.7,3.5
	c0.5,0.4,1.1,0.9,1.7,1.5c0.3,0.3,0.8,0.3,1.2,0c0.6-0.5,1.2-1,1.7-1.5c1.3-1.1,2.6-2.2,3.7-3.5c0.9-1,1.5-2.3,1.5-3.7
	C15,3.3,14.6,2.2,13.8,1.3z"/>
</svg>
