<svg xmlns="http://www.w3.org/2000/svg" width="55.505" height="55.505" viewBox="0 0 55.505 55.505">
  <g id="Grupo_394" data-name="Grupo 394" transform="translate(-805 -6616)">
    <g id="Caminho_38" data-name="Caminho 38" transform="translate(805 6616)" fill="#f7f6f5">
      <path d="M 27.75244140625 54.5048828125 C 24.14044189453125 54.5048828125 20.63702201843262 53.79769134521484 17.33949089050293 52.40295028686523 C 14.15395164489746 51.05558013916016 11.29283142089844 49.12649154663086 8.835611343383789 46.66926956176758 C 6.378391265869141 44.21205139160156 4.449301242828369 41.35093307495117 3.10193133354187 38.16539001464844 C 1.707191348075867 34.86786270141602 1.000001430511475 31.36444091796875 1.000001430511475 27.75244140625 C 1.000001430511475 24.14044189453125 1.707191348075867 20.63702201843262 3.10193133354187 17.33949089050293 C 4.449301242828369 14.15395164489746 6.378391265869141 11.29283142089844 8.835611343383789 8.835611343383789 C 11.29283142089844 6.378391265869141 14.15395164489746 4.449301242828369 17.33949089050293 3.10193133354187 C 20.63702201843262 1.707191348075867 24.14044189453125 1.000001430511475 27.75244140625 1.000001430511475 C 31.36444091796875 1.000001430511475 34.86786270141602 1.707191348075867 38.16539001464844 3.10193133354187 C 41.35093307495117 4.449301242828369 44.21205139160156 6.378391265869141 46.66926956176758 8.835611343383789 C 49.12649154663086 11.29283142089844 51.05558013916016 14.15395164489746 52.40295028686523 17.33949089050293 C 53.79769134521484 20.63702201843262 54.5048828125 24.14044189453125 54.5048828125 27.75244140625 C 54.5048828125 31.36444091796875 53.79769134521484 34.86786270141602 52.40295028686523 38.16539001464844 C 51.05558013916016 41.35093307495117 49.12649154663086 44.21205139160156 46.66926956176758 46.66926956176758 C 44.21205139160156 49.12649154663086 41.35093307495117 51.05558013916016 38.16539001464844 52.40295028686523 C 34.86786270141602 53.79769134521484 31.36444091796875 54.5048828125 27.75244140625 54.5048828125 Z" stroke="none"/>
      <path d="M 27.75244140625 2 C 24.27500152587891 2 20.90264129638672 2.680610656738281 17.72904205322266 4.022930145263672 C 14.66270065307617 5.319892883300781 11.90842056274414 7.177009582519531 9.542713165283203 9.542713165283203 C 7.177009582519531 11.90842056274414 5.319892883300781 14.66270065307617 4.022930145263672 17.72904205322266 C 2.680610656738281 20.90264129638672 2 24.27500152587891 2 27.75244140625 C 2 31.22988128662109 2.680610656738281 34.60224151611328 4.022930145263672 37.77584075927734 C 5.319892883300781 40.84218215942383 7.177009582519531 43.59646224975586 9.542713165283203 45.96217346191406 C 11.90842056274414 48.32787322998047 14.66270065307617 50.18498992919922 17.72904205322266 51.48195266723633 C 20.90264129638672 52.82427215576172 24.27500152587891 53.5048828125 27.75244140625 53.5048828125 C 31.22988128662109 53.5048828125 34.60224151611328 52.82427215576172 37.77584075927734 51.48195266723633 C 40.84218215942383 50.18498992919922 43.59646224975586 48.32787322998047 45.96217346191406 45.96217346191406 C 48.32787322998047 43.59646224975586 50.18498992919922 40.84218215942383 51.48195266723633 37.77584075927734 C 52.82427215576172 34.60224151611328 53.5048828125 31.22988128662109 53.5048828125 27.75244140625 C 53.5048828125 24.27500152587891 52.82427215576172 20.90264129638672 51.48195266723633 17.72904205322266 C 50.18498992919922 14.66270065307617 48.32787322998047 11.90842056274414 45.96217346191406 9.542713165283203 C 43.59646224975586 7.177009582519531 40.84218215942383 5.319892883300781 37.77584075927734 4.022930145263672 C 34.60224151611328 2.680610656738281 31.22988128662109 2 27.75244140625 2 M 27.75244140625 0 C 43.07968902587891 0 55.5048828125 12.42518997192383 55.5048828125 27.75244140625 C 55.5048828125 43.07968902587891 43.07968902587891 55.5048828125 27.75244140625 55.5048828125 C 12.42518997192383 55.5048828125 0 43.07968902587891 0 27.75244140625 C 0 12.42518997192383 12.42518997192383 0 27.75244140625 0 Z" stroke="none" fill="#efa80d"/>
    </g>
    <circle id="Elipse_1" data-name="Elipse 1" cx="20.5" cy="20.5" r="20.5" transform="translate(812.252 6623.252)" fill="#efa80d"/>
  </g>
</svg>
