<?xml version="1.0" encoding="utf-8"?>
<!-- Generator: Adobe Illustrator 25.4.1, SVG Export Plug-In . SVG Version: 6.00 Build 0)  -->
<svg version="1.1" id="Layer_1" xmlns="http://www.w3.org/2000/svg" xmlns:xlink="http://www.w3.org/1999/xlink" x="0px" y="0px"
	 viewBox="0 0 28 10.7" style="enable-background:new 0 0 28 10.7;" xml:space="preserve">
<style type="text/css">
	.st0{fill:url(#SVGID_1_);}
</style>
<g>
	
		<linearGradient id="SVGID_1_" gradientUnits="userSpaceOnUse" x1="8.5407" y1="612.3054" x2="13.9601" y2="610.364" gradientTransform="matrix(1 0 0 1 0 -602.22)">
		<stop  offset="0" style="stop-color:#F7FF10"/>
		<stop  offset="0.1963" style="stop-color:#E5FA0C"/>
		<stop  offset="0.375" style="stop-color:#D0F407"/>
		<stop  offset="0.4431" style="stop-color:#CAF30C"/>
		<stop  offset="0.535" style="stop-color:#B9F01B"/>
		<stop  offset="0.6403" style="stop-color:#9DEC33"/>
		<stop  offset="0.7556" style="stop-color:#75E654"/>
		<stop  offset="0.8779" style="stop-color:#43DE7F"/>
		<stop  offset="1" style="stop-color:#0AD5B0"/>
	</linearGradient>
	<path class="st0" d="M8.7,9.8c-1,0.2-0.2-1.2,0.8-1.4c1.1-0.2,2.7-0.3,4-0.1c1.5,0.2-0.2,1.7-0.7,1.6C11.8,9.6,9.9,9.5,8.7,9.8z"/>
	<path d="M16.2,3.3c0-0.5-0.9-1.1-1.8-1.1c-0.2,0-0.3,0.1-0.3,0.3c0,1.4-1.1,3.8-1.9,3.8c-0.2,0-0.3-0.1-0.3-0.3
		c0-0.8,0.8-1.7,0.8-2.5c0-0.6-0.8-1.3-1.5-1.3c-0.3,0-0.4,0.1-0.4,0.3c0,0.6-0.3,1.4-0.6,2.1C9.9,4.8,9.7,5.1,9.4,5.4
		c0.1-0.5,0.2-1,0.2-1.4c0-2.1-1.1-3.4-3.2-3.4c-2.8,0-4.2,1.7-4.2,2.8C1.5,3.8,0,5.3,0,7.6c0,1.6,1.2,3.1,3.4,3.1
		c2.4,0,4.5-1.9,5.5-4.1c0.2,0,0.4-0.1,0.6-0.2c0,0,0,0.1,0,0.1c0,0.8,0.6,1.2,1.3,1.2c1.3,0,2.1-0.9,2.3-0.9c0.1,0,0.6,0.9,1.8,0.9
		c0.2,0,0.2-0.1,0.2-0.2c0-0.2-0.1-0.2-0.1-0.8C15.1,5.4,16.2,3.7,16.2,3.3z M3.7,9.9C3,9.9,2.5,9.3,2.5,8.3c0-2,0.8-3,0.8-3
		S3.8,5.4,4,5.4c0.2,0,0.2-0.1,0.2-0.2c0-0.2-0.2-0.4-0.2-1c0-1,0.8-2.8,1.9-2.8c0.7,0,1,0.6,1,2C7,6.3,5.3,9.9,3.7,9.9z"/>
	<path d="M19.1,5.4c0.6,0,1-0.2,1.2-0.2c0.2,0,0.2,0.1,0.2,0.2c0,0.1-0.4,1.4-1.1,2.1c-0.9,0.8-2.5,1.3-2.5,1.6c0,0.1,0,0.1,0.1,0.1
		c2.3,0,2.4-0.5,2.7-0.5c0.1,0,0.2,0.1,0.2,0.3c0,0.8-0.7,1.7-1.9,1.7c-0.8,0-1.6-0.4-2.4-0.4c-0.5,0-0.9,0.2-1.1,0.2
		c-0.1,0-0.2-0.1-0.2-0.2c0-0.8,0.2-1.4,0.9-2C16,7.8,18.1,7,18.1,6.9c0,0,0-0.1-0.1-0.1c-2.2,0-2.2,0.3-2.5,0.3
		c-0.1,0-0.2-0.1-0.2-0.2c0-0.9,0.6-1.7,1.4-1.7C17.4,5.1,18.3,5.4,19.1,5.4z"/>
	<path d="M25.3,10.3c0,0.2,0,0.4-0.3,0.4c-0.7,0-1.7-0.2-1.7-0.7c0-1.1,1.5-3.3,1.5-4.5c0-0.2,0.1-0.3,0.4-0.3
		c0.9,0,1.5,0.7,1.5,1.1C26.7,7.2,25.3,9.2,25.3,10.3z"/>
	<path d="M27,2.2c0.6,0,1,0.4,1,0.9c0,0.8-0.6,1.5-1.3,1.5c-0.5,0-1-0.4-1-0.9C25.7,2.9,26.3,2.2,27,2.2z"/>
	<path d="M23.8,7.9c0-0.1,0.1-0.2,0.1-0.2C23.6,7.8,23,8,21.5,8c-0.1,0-0.1,0-0.1-0.1c0-0.2,1.6-0.8,2.5-1.6
		c0.8-0.6,1.1-1.9,1.1-2.1c0-0.1-0.1-0.2-0.2-0.2c-0.2,0-0.5,0.2-1.2,0.2c-0.9,0-1.7-0.3-2.4-0.3c-0.7,0-1.2,0.6-1.4,1.3
		c0,0,0.1,0,0.1,0c0.1,0,0.2-0.1,0.3-0.1c0.2,0,0.3,0.1,0.3,0.2c0,0.1,0,0.2,0,0.4c0.3-0.1,0.9-0.1,1.9-0.1c0.1,0,0.1,0,0.1,0.1
		c0,0.1-1.6,0.7-2.5,1.2c-0.3,0.4-0.4,0.6-1,1.1c-0.1,0.3-0.2,0.6-0.2,0.9c0.1,0,0.2-0.1,0.3-0.1c0.1,0,0.1-0.1,0.2-0.1
		c0.1,0,0.1-0.1,0.2-0.1c0.2,0,0.3,0.1,0.3,0.3c0,0.1,0,0.1,0,0.2c0,0,0,0,0,0.1c0.1,0,0.1,0,0.2,0c0.8,0,1.5,0.4,2.4,0.4
		c0.2,0,0.5,0,0.7-0.1C23.3,8.8,23.6,8.3,23.8,7.9z"/>
</g>
</svg>
